<?xml version="1.0" standalone="no"?>
<!DOCTYPE svg PUBLIC "-//W3C//DTD SVG 20010904//EN"
 "http://www.w3.org/TR/2001/REC-SVG-20010904/DTD/svg10.dtd">
<svg version="1.0" xmlns="http://www.w3.org/2000/svg"
 width="320.000000pt" height="320.000000pt" viewBox="0 0 320.000000 320.000000"
 preserveAspectRatio="xMidYMid meet">
<metadata>
Created by potrace 1.14, written by Peter Selinger 2001-2017
</metadata>
<g transform="translate(0.000000,320.000000) scale(0.100000,-0.100000)"
fill="#000000" stroke="none">
<path d="M3160 3185 c0 -8 9 -19 20 -25 18 -9 20 -8 20 15 0 18 -5 25 -20 25
-11 0 -20 -7 -20 -15z"/>
<path d="M3112 3118 c-25 -32 -93 -182 -90 -200 2 -14 29 -35 83 -64 44 -24
83 -44 88 -44 4 0 7 21 6 48 0 26 -3 41 -6 35 -8 -22 -83 4 -83 29 0 5 5 6 12
2 7 -4 8 -3 4 4 -10 17 -24 15 -29 -5 -4 -14 -5 -12 -6 5 -1 26 20 29 43 6 9
-8 16 -12 16 -8 0 5 5 3 12 -4 31 -31 38 -14 38 86 0 96 -1 99 -25 110 -33 15
-50 15 -63 0z m48 -48 c0 -5 -4 -10 -10 -10 -5 0 -10 5 -10 10 0 6 5 10 10 10
6 0 10 -4 10 -10z"/>
<path d="M2973 2846 c-21 -24 -93 -175 -93 -196 0 -14 6 -20 23 -19 30 1 52
11 53 27 1 6 2 16 3 22 1 11 33 1 43 -14 4 -6 40 -1 100 15 86 23 93 27 96 52
3 24 -4 30 -85 70 -108 55 -125 60 -140 43z"/>
<path d="M1480 2802 c-30 -16 -224 -127 -430 -247 -206 -120 -403 -234 -437
-252 -35 -19 -70 -44 -78 -56 -22 -32 -23 -1163 0 -1206 14 -29 29 -38 295
-194 132 -77 383 -225 420 -247 8 -5 74 -43 146 -85 147 -84 172 -90 240 -50
39 23 74 25 74 4 0 -5 11 -9 25 -9 25 0 34 -14 16 -24 -5 -3 -7 -15 -4 -26 3
-11 9 -17 15 -14 5 3 6 14 3 25 -5 15 -1 19 15 19 14 0 20 -5 18 -17 -2 -10 2
-17 7 -17 6 1 21 -9 35 -22 13 -13 19 -24 12 -24 -6 0 -12 -9 -12 -20 0 -11 5
-20 11 -20 8 0 7 -5 -1 -15 -19 -22 -8 -26 30 -12 26 9 34 9 37 0 6 -16 39
-17 48 -3 5 8 12 7 22 -1 13 -11 12 -14 -5 -20 -14 -5 -18 -14 -15 -32 3 -14
0 -28 -6 -31 -6 -4 -11 0 -11 8 0 22 -20 20 -21 -1 -1 -12 -4 -10 -9 7 -4 14
-8 19 -9 13 -1 -7 -6 -13 -11 -13 -6 0 -8 11 -4 25 9 36 -15 32 -27 -5 -12
-32 -45 -42 -55 -15 -4 8 -10 15 -16 15 -5 0 -7 -4 -4 -9 3 -4 -1 -17 -9 -27
-13 -17 -14 -17 -15 -2 0 9 -7 24 -16 32 -8 9 -12 16 -7 16 4 0 1 5 -7 10 -17
11 -63 13 -73 4 -9 -9 21 -36 32 -29 5 3 12 1 16 -5 4 -6 10 -8 15 -5 5 3 14
-4 20 -16 8 -14 8 -19 1 -15 -6 4 -25 8 -43 10 -18 3 -43 7 -55 11 -34 11 -28
-9 7 -22 17 -6 30 -16 30 -22 0 -16 -20 -13 -26 4 -7 17 -44 21 -44 5 0 -5 7
-10 15 -10 8 0 15 -9 15 -19 0 -15 -6 -19 -25 -17 -14 1 -28 6 -32 9 -14 15
-34 7 -29 -11 6 -18 -30 -49 -42 -37 -4 3 0 10 8 15 10 6 4 12 -25 24 -49 21
-80 20 -37 -1 26 -12 31 -20 26 -37 -3 -11 -10 -25 -15 -30 -13 -15 -11 -26 6
-26 8 0 15 4 15 9 0 16 38 23 60 11 11 -6 20 -19 20 -29 0 -28 28 -34 41 -10
6 11 8 27 5 35 -3 9 1 14 12 15 14 0 14 2 -3 9 -11 4 -24 4 -30 -1 -5 -5 -16
-9 -25 -8 -10 0 -11 2 -2 6 6 2 12 11 12 19 0 7 8 13 18 12 42 -3 60 3 65 23
4 15 11 20 22 15 9 -3 25 -6 36 -6 11 0 19 -7 20 -17 0 -14 2 -13 9 5 5 12 17
22 26 22 13 0 15 -8 12 -35 -3 -29 -1 -35 14 -35 21 0 24 -16 4 -23 -9 -4 -12
-14 -9 -26 7 -27 21 -27 25 0 3 22 48 48 48 28 0 -6 -9 -13 -20 -16 -11 -3
-20 -10 -20 -15 0 -6 10 -7 23 -4 12 4 31 10 42 13 18 6 18 5 6 -10 -18 -23 2
-22 22 1 20 22 22 33 4 26 -8 -3 -19 2 -26 10 -11 13 -9 16 14 22 28 7 57 -19
48 -43 -3 -7 2 -13 11 -13 18 0 22 -16 6 -22 -6 -2 7 -4 30 -4 22 -1 40 3 40
8 0 6 7 8 14 5 10 -4 13 -1 9 9 -6 17 -35 18 -51 2 -9 -9 -15 -9 -24 0 -9 9
-7 13 6 18 27 11 87 -4 108 -26 22 -23 29 -25 46 -8 8 8 15 8 25 -1 11 -8 143
-11 511 -11 l496 1 0 65 c0 70 1 69 -65 53 -81 -20 -134 15 -158 106 -3 11
-17 61 -31 110 -43 147 -273 959 -312 1100 -19 72 -40 141 -44 155 -5 14 -17
54 -25 90 -16 64 -16 65 4 79 20 13 21 21 21 240 -1 199 -3 228 -18 246 -16
20 -65 53 -126 86 -40 21 -42 34 -11 55 26 17 311 104 341 104 8 0 22 4 32 10
9 5 66 23 127 40 60 17 113 36 116 42 4 6 20 11 37 12 17 0 28 4 26 8 -6 9 61
22 73 15 5 -3 10 5 11 18 1 13 -5 26 -14 29 -10 4 -13 2 -8 -6 5 -7 0 -9 -14
-6 -12 4 -20 2 -16 -3 3 -5 -3 -9 -13 -9 -15 0 -16 -2 -3 -11 11 -8 7 -9 -16
-4 -18 3 -48 0 -70 -9 -21 -8 -52 -17 -69 -21 -78 -17 -194 -58 -189 -67 4 -7
-6 -8 -27 -3 -43 9 -32 -4 13 -16 30 -8 29 -8 -7 -3 -60 9 -76 8 -142 -12 -62
-18 -78 -41 -20 -28 18 3 29 3 25 -1 -4 -4 -31 -9 -60 -10 -38 -3 -47 -1 -33
6 15 6 10 7 -15 3 -49 -9 -92 -33 -84 -46 4 -6 3 -8 -4 -4 -6 3 -19 -5 -30
-19 l-20 -25 -61 35 c-34 19 -87 50 -118 69 -509 296 -599 347 -636 352 -23 4
-47 -3 -87 -24z m1627 -188 c-3 -3 -12 -4 -19 -1 -8 3 -5 6 6 6 11 1 17 -2 13
-5z m-1510 -35 c15 -5 68 -34 118 -63 184 -108 351 -205 551 -320 113 -64 124
-96 124 -344 l0 -174 28 4 c15 3 35 8 44 12 17 8 27 -16 42 -106 7 -36 5 -38
-51 -75 l-58 -38 -5 -153 -5 -152 -30 -29 c-16 -16 -113 -78 -215 -136 l-185
-107 -83 41 -83 41 -75 -51 c-53 -37 -71 -55 -62 -60 21 -13 28 -10 21 9 -4
13 -3 14 6 6 16 -15 6 -36 -27 -57 -17 -10 -21 -17 -12 -17 9 0 20 4 26 10 6
6 16 3 27 -10 14 -17 14 -20 2 -20 -8 0 -15 -4 -15 -10 0 -5 5 -10 11 -10 20
0 -2 -19 -58 -49 -31 -17 -68 -31 -83 -31 -14 0 -88 36 -165 81 -77 45 -167
97 -200 116 -266 154 -422 252 -439 276 -20 27 -21 42 -23 471 l-3 444 23 33
c15 22 60 56 127 95 58 33 224 131 370 216 302 177 304 178 357 157z m1370
-15 c-3 -3 -12 -4 -19 -1 -8 3 -5 6 6 6 11 1 17 -2 13 -5z m-92 -25 c-33 -10
-64 -18 -70 -18 -15 1 97 38 115 37 8 0 -12 -8 -45 -19z m-145 -40 c13 -9 12
-10 -2 -5 -9 3 -31 -2 -48 -11 -17 -8 -33 -13 -36 -10 -4 4 54 36 66 37 3 0
12 -5 20 -11z m-210 -59 c0 -5 -10 -10 -22 -10 -19 0 -20 2 -8 10 19 13 30 13
30 0z m136 -1409 c9 -29 18 -63 20 -75 2 -11 20 -77 40 -146 46 -157 94 -343
91 -346 -6 -6 -619 312 -620 321 0 9 159 106 306 187 80 43 97 70 97 151 0
101 11 112 32 31 10 -38 25 -93 34 -123z m-792 -460 c4 -5 1 -11 -6 -13 -8 -3
-5 -11 10 -23 27 -24 28 -39 3 -32 -13 3 -21 -1 -24 -12 -3 -11 -5 -9 -6 7 -1
26 -8 28 -33 5 -17 -15 -18 -15 -18 0 0 10 -8 17 -21 17 -11 0 -18 3 -15 8 2
4 23 7 45 7 36 0 41 2 41 22 0 23 14 31 24 14z m91 -131 c-3 -5 -15 -10 -26
-10 -10 0 -19 5 -19 10 0 6 12 10 26 10 14 0 23 -4 19 -10z m30 -30 c-4 -11
-2 -20 4 -20 6 0 11 7 11 16 0 8 5 12 10 9 6 -3 10 -15 10 -27 0 -16 -5 -19
-22 -14 -13 3 -31 6 -41 6 -10 0 -16 4 -13 9 4 5 0 12 -6 15 -7 3 -3 3 8 1 14
-4 24 0 28 10 8 22 18 18 11 -5z m-110 0 c3 -5 1 -10 -4 -10 -6 0 -11 5 -11
10 0 6 2 10 4 10 3 0 8 -4 11 -10z m45 -10 c0 -5 -4 -10 -9 -10 -6 0 -13 5
-16 10 -3 6 1 10 9 10 9 0 16 -4 16 -10z m0 -70 c0 -5 -4 -10 -10 -10 -5 0
-10 5 -10 10 0 6 5 10 10 10 6 0 10 -4 10 -10z m34 -15 c3 -9 0 -15 -8 -15 -7
0 -13 7 -13 15 0 8 4 15 8 15 4 0 9 -7 13 -15z m56 5 c8 -5 11 -10 5 -10 -5 0
-17 5 -25 10 -8 5 -10 10 -5 10 6 0 17 -5 25 -10z m63 -37 c-7 -2 -19 -2 -25
0 -7 3 -2 5 12 5 14 0 19 -2 13 -5z m-58 -33 c-18 -7 -16 -8 10 -12 l30 -5
-32 -2 c-31 -1 -41 7 -26 22 3 4 13 7 22 6 12 0 11 -3 -4 -9z m181 -5 c9 -8
11 -15 6 -15 -5 0 -15 7 -22 15 -7 8 -9 15 -6 15 4 0 14 -7 22 -15z m-169 -41
c-3 -3 -12 -4 -19 -1 -8 3 -5 6 6 6 11 1 17 -2 13 -5z m73 -4 c0 -5 -2 -10 -4
-10 -3 0 -8 5 -11 10 -3 6 -1 10 4 10 6 0 11 -4 11 -10z m54 -11 c-3 -5 -10
-7 -15 -3 -5 3 -7 10 -3 15 3 5 10 7 15 3 5 -3 7 -10 3 -15z m-324 1 c0 -5 -4
-10 -10 -10 -5 0 -10 5 -10 10 0 6 5 10 10 10 6 0 10 -4 10 -10z m58 -19 c11
-14 14 -14 23 -1 9 13 10 13 6 0 -5 -17 -47 -16 -58 1 -4 8 -8 7 -12 -2 -3 -8
-6 -5 -6 8 -1 17 3 21 17 16 9 -3 23 -13 30 -22z m136 -23 c-4 -6 -10 -5 -15
3 -14 22 -10 33 6 19 8 -7 12 -17 9 -22z m-227 16 c-3 -3 -12 -4 -19 -1 -8 3
-5 6 6 6 11 1 17 -2 13 -5z m389 -7 c-8 -6 -8 -10 2 -14 6 -2 12 -9 12 -14 0
-14 -28 -11 -37 5 -4 8 -24 19 -43 24 -33 9 -31 10 21 8 33 0 52 -4 45 -9z
m-199 -3 c-3 -3 -12 -4 -19 -1 -8 3 -5 6 6 6 11 1 17 -2 13 -5z m-2 -44 c10
-11 13 -20 7 -20 -6 0 -14 5 -18 11 -3 6 -17 9 -30 6 -25 -4 -33 8 -11 16 23
10 34 7 52 -13z m75 10 c0 -5 -4 -10 -10 -10 -5 0 -10 5 -10 10 0 6 5 10 10
10 6 0 10 -4 10 -10z m-33 -6 c-3 -3 -12 -4 -19 -1 -8 3 -5 6 6 6 11 1 17 -2
13 -5z m57 -29 c-4 -8 -10 -15 -15 -15 -4 0 -6 7 -3 15 4 8 10 15 15 15 4 0 6
-7 3 -15z m86 -15 c-20 -13 -33 -13 -25 0 3 6 14 10 23 10 15 0 15 -2 2 -10z
m40 0 c0 -5 -2 -10 -4 -10 -3 0 -8 5 -11 10 -3 6 -1 10 4 10 6 0 11 -4 11 -10z
m-50 -40 c0 -5 -2 -10 -4 -10 -3 0 -8 5 -11 10 -3 6 -1 10 4 10 6 0 11 -4 11
-10z"/>
<path d="M1598 853 c6 -2 10 -9 6 -14 -3 -5 0 -9 5 -9 6 0 11 7 11 15 0 8 -8
15 -17 14 -11 0 -13 -3 -5 -6z"/>
<path d="M1614 795 c8 -8 18 -15 22 -15 3 0 1 7 -6 15 -7 8 -17 15 -22 15 -5
0 -3 -7 6 -15z"/>
<path d="M805 629 c-4 -6 -5 -13 -2 -16 7 -7 27 6 27 18 0 12 -17 12 -25 -2z"/>
<path d="M35 510 c3 -5 10 -10 16 -10 5 0 9 5 9 10 0 6 -7 10 -16 10 -8 0 -12
-4 -9 -10z"/>
<path d="M65 490 c-3 -5 -1 -10 4 -10 6 0 11 5 11 10 0 6 -2 10 -4 10 -3 0 -8
-4 -11 -10z"/>
<path d="M0 479 c0 -5 5 -7 10 -4 5 3 10 8 10 11 0 2 -4 4 -10 4 -5 0 -10 -5
-10 -11z"/>
<path d="M1677 459 c7 -7 15 -10 18 -7 3 3 -2 9 -12 12 -14 6 -15 5 -6 -5z"/>
<path d="M11 447 c-6 -6 -11 -23 -11 -38 0 -22 4 -26 26 -23 32 3 45 14 17 14
-12 0 -24 7 -27 16 -9 24 2 30 24 16 11 -7 20 -9 20 -4 0 4 -8 12 -19 19 -14
9 -21 9 -30 0z"/>
<path d="M161 424 c0 -11 3 -14 6 -6 3 7 2 16 -1 19 -3 4 -6 -2 -5 -13z"/>
<path d="M100 419 c0 -5 5 -7 10 -4 6 3 10 8 10 11 0 2 -4 4 -10 4 -5 0 -10
-5 -10 -11z"/>
<path d="M1148 403 c7 -3 16 -2 19 1 4 3 -2 6 -13 5 -11 0 -14 -3 -6 -6z"/>
<path d="M188 393 c12 -2 32 -2 45 0 12 2 2 4 -23 4 -25 0 -35 -2 -22 -4z"/>
<path d="M1710 381 c0 -6 5 -13 10 -16 6 -3 10 1 10 9 0 9 -4 16 -10 16 -5 0
-10 -4 -10 -9z"/>
<path d="M67 367 c-4 -10 -12 -14 -22 -11 -11 5 -14 2 -9 -11 4 -10 1 -21 -7
-26 -11 -6 -11 -11 -2 -20 9 -9 15 -6 25 17 7 16 17 32 22 35 4 4 6 13 4 20
-3 9 -6 8 -11 -4z"/>
<path d="M185 370 c3 -5 10 -10 16 -10 5 0 9 5 9 10 0 6 -7 10 -16 10 -8 0
-12 -4 -9 -10z"/>
<path d="M115 360 c-3 -5 1 -10 9 -10 8 0 17 -4 20 -8 3 -5 -11 -9 -32 -8 -32
1 -37 -2 -37 -21 -1 -28 -35 -65 -42 -45 -3 6 -11 12 -19 12 -11 0 -14 -26
-14 -139 l0 -140 135 0 c84 -1 135 3 135 9 0 5 0 13 0 18 -1 14 -50 11 -50 -4
0 -8 -9 -14 -20 -14 -11 0 -20 4 -20 10 0 5 7 7 15 4 8 -4 15 -1 15 5 0 6 -8
11 -17 11 -15 0 -16 2 -3 10 13 8 12 11 -5 24 -18 13 -18 15 -3 16 24 0 41 35
29 58 -6 10 -8 28 -5 39 3 12 1 24 -6 28 -17 11 -24 -3 -10 -20 10 -12 10 -15
-3 -15 -8 0 -19 6 -25 13 -13 16 -21 77 -10 83 4 3 8 16 8 30 0 13 4 24 9 24
5 0 5 -15 1 -35 -9 -39 4 -58 15 -22 14 44 11 70 -7 75 -10 2 -18 8 -18 13 0
12 -37 11 -45 -1z m15 -54 c0 -3 -4 -8 -10 -11 -5 -3 -10 -1 -10 4 0 6 5 11
10 11 6 0 10 -2 10 -4z m0 -36 c0 -5 -4 -10 -9 -10 -6 0 -13 5 -16 10 -3 6 1
10 9 10 9 0 16 -4 16 -10z m-85 -40 c-3 -5 -11 -10 -16 -10 -6 0 -7 5 -4 10 3
6 11 10 16 10 6 0 7 -4 4 -10z m110 -110 c3 -5 -1 -10 -10 -10 -9 0 -13 5 -10
10 3 6 8 10 10 10 2 0 7 -4 10 -10z"/>
<path d="M2 340 c0 -14 2 -19 5 -12 2 6 2 18 0 25 -3 6 -5 1 -5 -13z"/>
<path d="M1715 340 c-3 -5 -3 -10 2 -10 4 0 1 -5 -7 -10 -8 -5 -10 -10 -4 -10
17 0 37 27 25 34 -5 4 -12 2 -16 -4z"/>
<path d="M1770 335 c0 -8 -6 -15 -12 -16 -7 0 -4 -4 6 -8 11 -4 30 -6 43 -3
l23 4 -24 19 c-29 23 -36 24 -36 4z"/>
<path d="M1725 290 c-3 -5 -1 -10 4 -10 6 0 11 5 11 10 0 6 -2 10 -4 10 -3 0
-8 -4 -11 -10z"/>
<path d="M1582 245 c-17 -37 -41 -43 -63 -14 l-19 24 14 -35 c14 -34 46 -54
46 -30 0 8 10 10 25 8 24 -5 25 -4 19 31 -8 46 -9 46 -22 16z"/>
<path d="M1540 240 c-13 -8 -13 -10 2 -10 9 0 20 5 23 10 8 13 -5 13 -25 0z"/>
<path d="M1440 215 c0 -8 5 -15 10 -15 6 0 10 7 10 15 0 8 -4 15 -10 15 -5 0
-10 -7 -10 -15z"/>
<path d="M233 208 c3 -9 1 -18 -6 -21 -9 -3 -9 -10 -1 -28 7 -14 8 -33 3 -45
-4 -12 -6 -30 -5 -40 3 -20 26 -32 26 -14 0 19 29 42 48 37 14 -4 14 -6 -5
-12 -34 -11 -28 -25 8 -20 35 4 65 25 36 25 -9 0 -17 5 -17 10 0 6 7 10 15 10
8 0 15 4 15 9 0 14 -23 28 -57 36 -33 7 -46 18 -49 43 -2 8 -6 17 -10 20 -4 4
-4 -1 -1 -10z"/>
<path d="M1191 194 c0 -11 3 -14 6 -6 3 7 2 16 -1 19 -3 4 -6 -2 -5 -13z"/>
<path d="M305 190 c3 -5 8 -10 11 -10 2 0 4 5 4 10 0 6 -5 10 -11 10 -5 0 -7
-4 -4 -10z"/>
<path d="M1490 189 c0 -5 5 -7 10 -4 6 3 10 8 10 11 0 2 -4 4 -10 4 -5 0 -10
-5 -10 -11z"/>
<path d="M1465 160 c27 -12 43 -12 25 0 -8 5 -22 9 -30 9 -10 0 -8 -3 5 -9z"/>
<path d="M1212 112 c3 -29 1 -52 -3 -52 -5 0 -9 -11 -9 -24 0 -13 -5 -26 -11
-28 -7 -2 5 -4 26 -5 l37 -1 -6 36 c-3 21 -6 44 -6 52 0 13 -1 13 -10 0 -8
-12 -10 -11 -10 7 0 12 6 23 12 25 9 3 7 10 -6 24 -19 18 -19 17 -14 -34z"/>
<path d="M530 119 c0 -11 5 -17 10 -14 6 3 10 13 10 21 0 8 -4 14 -10 14 -5 0
-10 -9 -10 -21z"/>
<path d="M565 130 c3 -5 8 -10 11 -10 2 0 4 5 4 10 0 6 -5 10 -11 10 -5 0 -7
-4 -4 -10z"/>
<path d="M1680 121 c0 -5 6 -12 13 -14 9 -4 9 -8 -3 -16 -8 -5 -18 -7 -22 -5
-4 3 -8 0 -8 -5 0 -6 11 -11 24 -11 31 0 40 32 15 49 -11 6 -19 7 -19 2z"/>
<path d="M1408 113 c6 -2 18 -2 25 0 6 3 1 5 -13 5 -14 0 -19 -2 -12 -5z"/>
<path d="M367 103 c-9 -14 -1 -63 12 -76 8 -8 11 -2 11 22 0 29 2 32 15 21 8
-7 13 -16 10 -20 -9 -14 16 -23 28 -11 17 17 31 13 17 -4 -18 -22 -7 -28 61
-33 60 -4 61 -4 47 17 -7 12 -19 19 -27 16 -7 -3 -19 2 -25 11 -7 9 -24 17
-39 17 -17 1 -30 10 -36 25 -9 18 -15 21 -29 13 -13 -7 -22 -7 -29 0 -6 6 -13
7 -16 2z"/>
<path d="M1127 92 c-10 -10 -17 -32 -16 -48 l1 -29 8 28 c5 16 14 35 21 43 18
22 5 27 -14 6z"/>
<path d="M470 90 c0 -5 5 -10 10 -10 6 0 10 5 10 10 0 6 -4 10 -10 10 -5 0
-10 -4 -10 -10z"/>
<path d="M555 90 c-3 -5 1 -10 9 -10 9 0 16 5 16 10 0 6 -4 10 -9 10 -6 0 -13
-4 -16 -10z"/>
<path d="M711 84 c0 -11 3 -14 6 -6 3 7 2 16 -1 19 -3 4 -6 -2 -5 -13z"/>
<path d="M1170 80 c0 -5 7 -10 16 -10 8 0 12 5 9 10 -3 6 -10 10 -16 10 -5 0
-9 -4 -9 -10z"/>
<path d="M1386 76 c13 -10 23 -11 32 -4 7 6 15 9 17 6 9 -8 -6 -38 -16 -32
-18 11 -29 -7 -17 -29 11 -21 11 -21 19 -2 8 20 8 20 9 0 1 -11 6 -2 10 20 10
51 7 55 -38 55 -33 0 -34 -1 -16 -14z"/>
<path d="M1732 78 c6 -18 25 -21 31 -5 3 8 -3 13 -15 14 -10 1 -18 -3 -16 -9z"/>
<path d="M598 73 c6 -2 18 -2 25 0 6 3 1 5 -13 5 -14 0 -19 -2 -12 -5z"/>
<path d="M1251 64 c0 -11 3 -14 6 -6 3 7 2 16 -1 19 -3 4 -6 -2 -5 -13z"/>
<path d="M1270 66 c0 -9 7 -19 15 -22 12 -5 13 -10 4 -20 -7 -9 -8 -14 -1 -14
6 0 17 -3 25 -6 23 -9 10 29 -19 57 -20 19 -24 20 -24 5z"/>
<path d="M696 46 c10 -8 21 -12 24 -10 5 6 -21 24 -34 24 -6 0 -1 -6 10 -14z"/>
<path d="M1649 55 c-1 -3 -2 -8 -3 -12 -1 -5 -5 -13 -9 -20 -10 -16 4 -22 31
-12 21 8 22 9 5 29 -18 21 -22 23 -24 15z"/>
<path d="M1714 38 c3 -13 6 -26 6 -30 0 -14 18 -8 24 8 7 17 -9 44 -26 44 -6
0 -8 -10 -4 -22z"/>
<path d="M1080 25 c0 -14 5 -25 10 -25 6 0 10 11 10 25 0 14 -4 25 -10 25 -5
0 -10 -11 -10 -25z"/>
<path d="M1531 33 c7 -10 15 -20 16 -22 2 -2 3 3 3 11 0 9 -7 19 -16 22 -15 6
-15 4 -3 -11z"/>
<path d="M1345 30 c3 -5 8 -10 11 -10 2 0 4 5 4 10 0 6 -5 10 -11 10 -5 0 -7
-4 -4 -10z"/>
<path d="M1775 27 c-4 -10 -5 -21 -1 -24 10 -10 18 4 13 24 -4 17 -4 17 -12 0z"/>
<path d="M670 20 c0 -12 28 -25 36 -17 3 3 -4 10 -15 17 -15 7 -21 7 -21 0z"/>
<path d="M845 20 c3 -5 10 -10 16 -10 5 0 9 5 9 10 0 6 -7 10 -16 10 -8 0 -12
-4 -9 -10z"/>
<path d="M991 14 c0 -11 3 -14 6 -6 3 7 2 16 -1 19 -3 4 -6 -2 -5 -13z"/>
<path d="M1261 14 c0 -11 3 -14 6 -6 3 7 2 16 -1 19 -3 4 -6 -2 -5 -13z"/>
<path d="M338 3 c7 -3 16 -2 19 1 4 3 -2 6 -13 5 -11 0 -14 -3 -6 -6z"/>
<path d="M1868 3 c7 -3 16 -2 19 1 4 3 -2 6 -13 5 -11 0 -14 -3 -6 -6z"/>
</g>
</svg>
